<?xml version="1.0" encoding="UTF-8"?>
<svg id="Layer_1" xmlns="http://www.w3.org/2000/svg" width="52" height="33" viewBox="0 0 52 33"><circle cx="25.99" cy="16.5" r="15.99" fill="#0eafe0"/><path d="M25.99,29.4c-7.11,0-12.9-5.79-12.9-12.9S18.88,3.6,25.99,3.6s12.9,5.79,12.9,12.9-5.79,12.9-12.9,12.9ZM25.99,4.6c-6.56,0-11.9,5.34-11.9,11.9s5.34,11.9,11.9,11.9,11.9-5.34,11.9-11.9-5.34-11.9-11.9-11.9Z" fill="#fff"/><path d="M25.99,24.98c-4.68,0-8.48-3.81-8.48-8.48s3.81-8.48,8.48-8.48,8.48,3.81,8.48,8.48-3.81,8.48-8.48,8.48ZM25.99,9.02c-4.13,0-7.48,3.36-7.48,7.48s3.36,7.48,7.48,7.48,7.48-3.36,7.48-7.48-3.36-7.48-7.48-7.48Z" fill="#fff"/><circle cx="12.31" cy="16.5" r="9.4" fill="#f9b500"/><circle cx="37.71" cy="16.5" r="11.38" fill="#69ca00"/><polygon points="11.57 18.02 9.37 12.55 7.07 12.54 7.07 20.53 8.99 20.44 9.02 15.78 10.81 20.44 12.33 20.44 14.11 15.78 14.16 20.44 16.07 20.44 16.07 12.56 13.77 12.56 11.57 18.02" fill="#fff"/><rect x="17.27" y="12.56" width="1.91" height="7.89" fill="#fff"/><polygon points="24.78 15.76 22.37 15.76 22.37 14.11 25.59 14.11 25.59 12.56 20.45 12.56 20.45 20.47 22.37 20.47 22.37 17.28 24.78 17.28 24.78 15.76" fill="#fff"/><path d="M27.48,12.56l-2.86,7.89h2.01l.5-1.36h2.92s.47,1.36.47,1.36h2.05l-2.9-7.89M29.55,17.58h-1.93l.98-2.84.95,2.84Z" fill="#fff"/><path d="M39.17,14.99c0-1.59-1.1-2.43-3.06-2.43h-3.07v7.89h1.95v-2.95h.47l1.61,2.95h2.2l-1.8-3.1c1.01-.24,1.71-1.23,1.71-2.36M34.98,14.18h.95c.84,0,1.29.2,1.27.88-.04,1.11-.68,1.04-1.38,1.04h-.85s0-1.92,0-1.92Z" fill="#fff"/><polygon points="42.02 18.91 42.02 17.21 44.61 17.21 44.61 15.69 42.02 15.69 42.02 14.13 44.96 14.13 44.96 12.56 40.11 12.56 40.11 20.44 44.96 20.44 44.96 18.91 42.02 18.91" fill="#fff"/></svg>